# xmcd CD database file
#
# Track frame offsets:
#	150
#	14869
#	30276
#	44166
#	62658
#	83626
#	101105
#	118044
#	135413
#	167200
#	173520
#	194610
#	205141
#
# Disc length: 3036 seconds
#
# Revision: 1
# Processed by: cddbd v1.5.2PL0 Copyright (c) Steve Scherf et al.
# Submitted via: CDex 1.51
#
DISCID=b30bda0d
DTITLE=Captain Beefheart and The Magic Band - Live 'N' Rare (Disc-1)
DYEAR=2005
DGENRE=Blues Rock
TTITLE0=Abba Zabba (London 1974)
TTITLE1=Ashtray Heart (Manchester 1980)
TTITLE2=Bass Solo (Manchester 1980)
TTITLE3=Beatle Bones 'N' Smokin' Stones (Portsmouth 1975)
TTITLE4=Big Eyed Beans From Venus (Manchester 1980)
TTITLE5=Old Black Snake (Bickershaw 1972)
TTITLE6=Crazy Little Thing (London 1974)
TTITLE7=Dirty Blue Gene (Manchester 1980)
TTITLE8=Electricity (Leicester 1973)
TTITLE9=Flavor Bud Living (Manchester 1980)
TTITLE10=Gimme Dat Harp Boy (Knebworth 1975)
TTITLE11=Golden Birdies (Manchester 1980)
TTITLE12=Grow Fins (Bickershaw 1972)
EXTD=YEAR: 2005
EXTT0=
EXTT1=
EXTT2=
EXTT3=
EXTT4=
EXTT5=
EXTT6=
EXTT7=
EXTT8=
EXTT9=
EXTT10=
EXTT11=
EXTT12=
PLAYORDER=
